<svg id="a16fe656-f8e0-49b8-b254-3eacc7e1ac55" data-name="Layer 1" xmlns="http://www.w3.org/2000/svg" width="512" height="512" viewBox="0 0 512 512"><defs><style>.e4d768fd-45d2-486a-a7d8-68471277f667{fill:#6366f1;}</style></defs><path class="e4d768fd-45d2-486a-a7d8-68471277f667" d="M256,24.3c-101.69,0-184.12,82.44-184.12,184.12a184.12,184.12,0,0,0,368.24,0C440.12,106.74,357.69,24.3,256,24.3ZM376.39,240.13l-43-43a9,9,0,0,0-12.72,0L200.08,317.75a37.77,37.77,0,0,1-53.41-53.41l120.61-120.6a9,9,0,0,0,0-12.73l-43-43H367.4a9,9,0,0,1,9,9Z"/><polygon class="e4d768fd-45d2-486a-a7d8-68471277f667" points="48.63 445.33 24.91 412.33 13.96 412.33 13.96 467.86 25.86 467.86 25.86 434.94 49.5 467.86 60.53 467.86 60.53 412.33 48.63 412.33 48.63 445.33"/><path class="e4d768fd-45d2-486a-a7d8-68471277f667" d="M105.71,432.36A22.3,22.3,0,0,0,89.8,425.9,23,23,0,0,0,81,427.6a23.6,23.6,0,0,0-7.22,4.64,22,22,0,0,0-4.91,6.94,20.72,20.72,0,0,0,0,16.94,22.29,22.29,0,0,0,4.84,6.94,22.05,22.05,0,0,0,7.22,4.68,23.23,23.23,0,0,0,8.92,1.71,24.8,24.8,0,0,0,5.63-.64,27.77,27.77,0,0,0,5.32-1.8,23.87,23.87,0,0,0,4.68-2.8,19.86,19.86,0,0,0,3.73-3.71l-9.6-5.89a9.78,9.78,0,0,1-4.17,2.94,14.74,14.74,0,0,1-5.59,1.11,9.8,9.8,0,0,1-6.54-2.16,11.48,11.48,0,0,1-3.61-5.14h32.13c.1-.58.18-1.19.23-1.82s.08-1.24.08-1.83a21.21,21.21,0,0,0-1.7-8.41A22.23,22.23,0,0,0,105.71,432.36ZM80,443.19a12.43,12.43,0,0,1,3.77-4.6,9.73,9.73,0,0,1,6.07-1.9,9.88,9.88,0,0,1,6.11,1.9,11.59,11.59,0,0,1,3.73,4.6Z"/><polygon class="e4d768fd-45d2-486a-a7d8-68471277f667" points="159.53 454.54 152.31 427.48 139.78 427.48 132.56 454.54 125.1 427.48 113.36 427.48 125.9 467.86 139.62 467.86 146.05 443.67 152.47 467.86 166.2 467.86 178.73 427.48 166.99 427.48 159.53 454.54"/><path class="e4d768fd-45d2-486a-a7d8-68471277f667" d="M242.36,446.6a11.8,11.8,0,0,1-.84,4.41,12.12,12.12,0,0,1-2.34,3.76,11.73,11.73,0,0,1-3.49,2.66,9.27,9.27,0,0,1-4.2,1,9.49,9.49,0,0,1-4.29-1,11.32,11.32,0,0,1-3.45-2.66,13.36,13.36,0,0,1-2.34-3.76,11.45,11.45,0,0,1-.87-4.41V412.33h-11.9v34.35a22.15,22.15,0,0,0,1.82,8.93,23.23,23.23,0,0,0,4.92,7.22,23.52,23.52,0,0,0,7.26,4.83,22.77,22.77,0,0,0,17.77,0,23,23,0,0,0,7.22-4.92,23.42,23.42,0,0,0,4.84-7.22,22,22,0,0,0,1.79-8.81V412.33h-11.9Z"/><path class="e4d768fd-45d2-486a-a7d8-68471277f667" d="M302.78,432.24a22.44,22.44,0,0,0-6.92-4.64,21.11,21.11,0,0,0-8.39-1.7,16,16,0,0,0-6.37,1.3,23.21,23.21,0,0,0-5.58,3.38v-3.1h-11.9V487.7h11.9V464.65a23.67,23.67,0,0,0,5.62,3.48,15.55,15.55,0,0,0,6.33,1.32,21.44,21.44,0,0,0,15.35-6.39,22.21,22.21,0,0,0,4.63-6.94,21,21,0,0,0,1.7-8.41,21.71,21.71,0,0,0-6.37-15.47ZM296.38,452a10.88,10.88,0,0,1-2.34,3.48,11.18,11.18,0,0,1-3.49,2.33,11.19,11.19,0,0,1-8.65,0,11.18,11.18,0,0,1-3.49-2.33,10.88,10.88,0,0,1-2.34-3.48,11.09,11.09,0,0,1,0-8.61,10.88,10.88,0,0,1,2.34-3.48,11,11,0,0,1,3.49-2.33,11.19,11.19,0,0,1,8.65,0,11,11,0,0,1,3.49,2.33,10.88,10.88,0,0,1,2.34,3.48,11.09,11.09,0,0,1,0,8.61Z"/><path class="e4d768fd-45d2-486a-a7d8-68471277f667" d="M348.34,430.58a23.47,23.47,0,0,0-5.59-3.38,16.09,16.09,0,0,0-6.39-1.3,21.13,21.13,0,0,0-8.4,1.7,22.57,22.57,0,0,0-6.95,4.64,21.66,21.66,0,0,0-6.38,15.47,21.14,21.14,0,0,0,1.7,8.41,22.41,22.41,0,0,0,4.64,6.94,21.58,21.58,0,0,0,15.39,6.39,15.64,15.64,0,0,0,6.35-1.32,23.73,23.73,0,0,0,5.63-3.48v3.21h11.9V412.33h-11.9Zm-.56,21.4a10.88,10.88,0,0,1-2.34,3.48,11.27,11.27,0,0,1-3.51,2.33,11.26,11.26,0,0,1-8.68,0,11.22,11.22,0,0,1-3.5-2.33A11.07,11.07,0,0,1,327.4,452a11.09,11.09,0,0,1,0-8.61,10.86,10.86,0,0,1,5.85-5.81,11.26,11.26,0,0,1,8.68,0,11.1,11.1,0,0,1,3.51,2.33,10.88,10.88,0,0,1,2.34,3.48,11,11,0,0,1,0,8.61Z"/><path class="e4d768fd-45d2-486a-a7d8-68471277f667" d="M400.71,430.58a24.1,24.1,0,0,0-5.56-3.38,15.82,15.82,0,0,0-6.35-1.3,21.21,21.21,0,0,0-8.41,1.7,22.65,22.65,0,0,0-6.94,4.64,22,22,0,0,0-4.72,6.94,21.23,21.23,0,0,0-1.74,8.53,21,21,0,0,0,1.7,8.41,22.41,22.41,0,0,0,4.64,6.94,21.25,21.25,0,0,0,6.94,4.68,21.52,21.52,0,0,0,8.53,1.71,15.67,15.67,0,0,0,6.35-1.32,22.56,22.56,0,0,0,5.56-3.48v3.21H412.6V427.48H400.71Zm-.48,21.4a10.66,10.66,0,0,1-2.38,3.48,11.72,11.72,0,0,1-3.53,2.33,10.67,10.67,0,0,1-4.25.87,10.83,10.83,0,0,1-4.32-.87,11.18,11.18,0,0,1-3.49-2.33,10.88,10.88,0,0,1-2.34-3.48,11,11,0,0,1,0-8.61,10.88,10.88,0,0,1,2.34-3.48,11,11,0,0,1,3.49-2.33,10.83,10.83,0,0,1,4.32-.87,10.67,10.67,0,0,1,4.25.87,11.54,11.54,0,0,1,3.53,2.33A11,11,0,0,1,400.23,452Z"/><path class="e4d768fd-45d2-486a-a7d8-68471277f667" d="M447,458a10.92,10.92,0,0,1-4.48.67,4.13,4.13,0,0,1-3.05-1.23,4.33,4.33,0,0,1-1.31-3V437.8h7.53L448,427.48h-9.84V414.63h-11.9v12.85H418V437.8h8.25l.08,19.12a12,12,0,0,0,1,4.87,13.24,13.24,0,0,0,2.66,4,12.36,12.36,0,0,0,3.92,2.7,12.06,12.06,0,0,0,4.88,1,58,58,0,0,0,8.13-.44,25.28,25.28,0,0,0,4.65-1.07L449,457Z"/><path class="e4d768fd-45d2-486a-a7d8-68471277f667" d="M496.34,439.3a22.23,22.23,0,0,0-4.68-6.94,22.3,22.3,0,0,0-15.91-6.46,23,23,0,0,0-8.81,1.7,23.43,23.43,0,0,0-7.21,4.64,21.9,21.9,0,0,0-4.92,6.94,20.72,20.72,0,0,0,0,16.94,22.29,22.29,0,0,0,4.84,6.94,22.05,22.05,0,0,0,7.22,4.68,23.23,23.23,0,0,0,8.92,1.71,24.74,24.74,0,0,0,5.63-.64,27.54,27.54,0,0,0,5.32-1.8,23.87,23.87,0,0,0,4.68-2.8,19.86,19.86,0,0,0,3.73-3.71l-9.6-5.89a9.78,9.78,0,0,1-4.17,2.94,14.7,14.7,0,0,1-5.59,1.11,9.82,9.82,0,0,1-6.54-2.16,11.48,11.48,0,0,1-3.61-5.14h32.13c.1-.58.18-1.19.23-1.82s.08-1.24.08-1.83A21.21,21.21,0,0,0,496.34,439.3Zm-30.43,3.89a12.43,12.43,0,0,1,3.77-4.6,9.73,9.73,0,0,1,6.07-1.9,9.88,9.88,0,0,1,6.11,1.9,11.59,11.59,0,0,1,3.73,4.6Z"/></svg>