<svg id="ab8ed75e-3327-4949-852f-a557d8a8907c" data-name="Layer 1" xmlns="http://www.w3.org/2000/svg" width="512" height="512" viewBox="0 0 512 512"><defs><style>.b4d1a55f-a2c0-4d01-8b5a-5b6a0841b3d0{fill:#560062;}</style></defs><path class="b4d1a55f-a2c0-4d01-8b5a-5b6a0841b3d0" d="M370.23,147.2a6.68,6.68,0,0,0,3.08.71,6.15,6.15,0,0,0,5.45-2.84l5.7-9.49a7,7,0,0,0,.59-4.86,5.83,5.83,0,0,0-2.85-3.8,6.31,6.31,0,0,0-4.74-.71,6.18,6.18,0,0,0-3.92,3l-5.45,9.26a6.28,6.28,0,0,0-.83,4.86A6,6,0,0,0,370.23,147.2Z"/><path class="b4d1a55f-a2c0-4d01-8b5a-5b6a0841b3d0" d="M491.66,182.06a6.39,6.39,0,0,0-4-2.72,5.87,5.87,0,0,0-4.74.83q-17.33,10.68-41.75,28.46a51.86,51.86,0,0,1-15.65,7.83q-8.07,2.37-13.16,1.9t-7.48-2.61q-.94-.48-.11-6.64a45.78,45.78,0,0,1,3.67-12.57,47.84,47.84,0,0,1,4.19-7.23,3.88,3.88,0,0,0,.23-.33q7.05-9.76,17.64-11.9c1.42-.31,2.69-.55,3.8-.71a25.6,25.6,0,0,1-1.43,2.14,5.78,5.78,0,0,0-1.19,4.74,6.45,6.45,0,0,0,2.5,4.15,5.94,5.94,0,0,0,4.62,1.19,5.54,5.54,0,0,0,4-2.49q7.83-10.2,3.33-17.31t-18.27-4A37.83,37.83,0,0,0,412,172.35a53.31,53.31,0,0,0-7.91,7.92c-1.21.52-2.42,1-3.72,1.68a44.47,44.47,0,0,0-5.21,3.09c-1.75,1.18-3.29,2.25-4.63,3.19s-3,2.22-4.86,3.8-3.4,2.8-4.51,3.68-2.61,2.17-4.5,3.91c-4.12,3.64-7.23,6.33-9.37,8.07s-4.82,3.67-8.07,5.8a27.76,27.76,0,0,1-9.13,4.16,22.08,22.08,0,0,1-8.53.23q-.48-4.74,6.76-19.21A234.25,234.25,0,0,1,366.19,169a5.71,5.71,0,0,0,1.19-4.74,6,6,0,0,0-2.61-4,6.74,6.74,0,0,0-4.75-1.06,5.47,5.47,0,0,0-4,2.49c-4.05,5.93-7.85,11.81-11.49,17.66a39.76,39.76,0,0,0-7.25,1,53.9,53.9,0,0,0-7.47,2.25q-3,1.19-8.42,3.79a145.55,145.55,0,0,1-18.73,7.84q-3.79-5.94-13.29-15.9a41.45,41.45,0,0,1-3.79-4,6,6,0,0,1,0-5.69q4-7.83,22.53-10.91c1.58-.15,2.92-.24,4-.24q-1.67,6.16-9.73,15.66a6.17,6.17,0,0,0-1.54,4.5,5.66,5.66,0,0,0,2.14,4.27,6.11,6.11,0,0,0,4.63,1.42,6.17,6.17,0,0,0,4.27-2.13q17.3-20.16,11.38-30.36-4-7.59-17.08-5.46-24.9,4-31.78,17.56a18.17,18.17,0,0,0,0,17.07c0,.06.11.16.14.22-6.16,3.12-13.38,8.93-21.72,17.57q-8.07,8.55-13.29,11.86a18.79,18.79,0,0,1-12.33,2.61c-2.05-.32-3.32-1-3.79-2.14q-2.13-4,1-14.22a95.24,95.24,0,0,1,7.82-18.75,5.82,5.82,0,0,0,.48-4.62,6.35,6.35,0,0,0-2.85-3.8,5.75,5.75,0,0,0-4.51-.71,6.33,6.33,0,0,0-3.79,2.73A250.66,250.66,0,0,1,193.41,204q-15.76,15.78-25.49,15.3h-.71q-.24-4.5,8.06-17.9A231.81,231.81,0,0,1,195.43,174a5.73,5.73,0,0,0,1.42-4.5,6,6,0,0,0-2.25-4.27,6.46,6.46,0,0,0-8.89.71q-5.46,6.41-10.32,13c-.07.1-.15.23-.22.32a5.91,5.91,0,0,0-1.56.16q-8.07,2.37-25.14,11.14-20.17,10.44-25.38,10-.48-1.66.23-7.59a29,29,0,0,0,.36-10.92,13.8,13.8,0,0,0-5.09-9.48,10.06,10.06,0,0,0-5.58-2.37,11.53,11.53,0,0,0-5.1.59,17.19,17.19,0,0,0-5,3.44,56,56,0,0,0-4.39,4.39q-1.55,1.77-4.15,5.1-7.83,9.72-12.57,13.52.71-11.38,6.64-30.13a2.05,2.05,0,0,0,.24-.94c1.1-8.07-.63-13-5.22-14.71q-5.46-2.13-12.57,4.39T48.38,184.44q8.31-18.51,9.49-22.53Q60,155,55.73,151.47q-5.46-4.26-15.66,1.19a6.83,6.83,0,0,0-2.84,3.91,5.85,5.85,0,0,0,.48,4.63,5.66,5.66,0,0,0,5.69,3.32q-6.65,16.13-23.25,51.94a89.25,89.25,0,0,0-3.31,9,14.21,14.21,0,0,0-.36,6.52,6.83,6.83,0,0,0,3.44,4.87,6.29,6.29,0,0,0,3.08.94c2.38,0,4.7-1.3,7-3.91a121.24,121.24,0,0,0,9.61-13.64q24.18-37,34.86-49.8-9.5,33.44-.71,40.08,5.2,4,12.09-.71,7.59-4.74,18.26-18.26a82.82,82.82,0,0,1,7.12-8.07,43.69,43.69,0,0,1-.47,8.07q-1.2,12.57,2.6,17.31,2.85,3.56,8.31,4a26.39,26.39,0,0,0,10-1.19,64.3,64.3,0,0,0,10.2-3.67q4.28-2,12.56-6.29c3.21-1.67,6.05-3.08,8.71-4.37A67.5,67.5,0,0,0,156.18,212q-2.49,8.07-.36,12.81a13.07,13.07,0,0,0,3.91,4.75,13.42,13.42,0,0,0,7.71,2.37h.71q17.08,0,42-27-.24,6.63,2.13,10.91,4,7.81,13.76,8.77a32.36,32.36,0,0,0,11.14-.47,28,28,0,0,0,10-4.51,75.08,75.08,0,0,0,7.48-5.81q2.72-2.49,7.47-7.23,11.39-12.09,18.5-15.42a5.58,5.58,0,0,0,2.13-1.52,95.75,95.75,0,0,1,7.35,8.63,108.11,108.11,0,0,0-32.61,16.37q-14.34,10.66-14.11,18.26.24,6.18,6.16,7.59a44.14,44.14,0,0,0,9.49,1q20.88,0,40.56-14.94,7.83-6.16,8.54-14.71a19.21,19.21,0,0,0-.47-5.92,198.14,198.14,0,0,0,19-8.07q5-2.37,7.47-3.32c.8-.3,1.86-.57,2.78-.85-1.49,3.21-2.95,6.5-4.33,10.1q-5,13-2.6,19.21a10.74,10.74,0,0,0,7.82,6.88,31.31,31.31,0,0,0,7.59.95A33.7,33.7,0,0,0,355.87,229a44.3,44.3,0,0,0,10.67-5.34,107,107,0,0,0,8.9-6.4q3.33-2.73,9.49-8.18c3.09-2.74,5.93-5.09,8.61-7.23-2.7,10.48-2.05,18.05,2.3,22.4q6.17,6.41,18.74,6.41,17.31,0,33.92-11.86,21.81-15.89,41-28a6.15,6.15,0,0,0,3-4A5.86,5.86,0,0,0,491.66,182.06ZM295.52,210.77q-.24,3.07-3.56,5.69-15.88,12.09-32,12.33,14.24-12.81,35.58-19.21Z"/><path class="b4d1a55f-a2c0-4d01-8b5a-5b6a0841b3d0" d="M395.5,158.24q1.59-7.16,3.1-14.32c.43-2,.87-4.15,1.32-6.41l1.35-6.77q.68-3.37,1.31-6.72t1.12-6.29c-1.27.11-2.52.27-3.74.48l-3.15.51c-1.09.19-2,.34-2.74.44.1-.74.26-1.87.47-3.38s.46-3.07.72-4.66c.21-1.8.48-3.77.8-5.89,1.22-.26,2.92-.61,5.09-1q2.79-.48,7.41-1.2c3.07-.48,6.89-1.08,11.46-1.83q-1.68,7-3.07,13.61T414.32,128q-1.23,6.6-2.38,13.33t-2.27,13.81c-1.22.37-2.63.75-4.22,1.11s-3.16.7-4.7,1C399.05,157.58,397.3,157.93,395.5,158.24Z"/><path class="b4d1a55f-a2c0-4d01-8b5a-5b6a0841b3d0" d="M454.72,128.24A54.06,54.06,0,0,1,449,145.35a31.34,31.34,0,0,1-4.89,6.81,23,23,0,0,1-6.17,4.61,16,16,0,0,1-7.36,1.71,13.33,13.33,0,0,1-6.25-1.35,11.52,11.52,0,0,1-4.22-3.7,16.66,16.66,0,0,1-2.43-5.49,27.77,27.77,0,0,1-.8-6.81,45.69,45.69,0,0,1,1-9,55,55,0,0,1,2.74-9.32,55.71,55.71,0,0,1,4.34-8.67,42.78,42.78,0,0,1,5.53-7.25,26.64,26.64,0,0,1,6.41-5,14.57,14.57,0,0,1,7.09-1.87,8.79,8.79,0,0,1,5.13,1.51,11.73,11.73,0,0,1,3.62,4.14,20.93,20.93,0,0,1,2.11,6.17,40.13,40.13,0,0,1,.68,7.52A56.41,56.41,0,0,1,454.72,128.24Zm-25,15a3.3,3.3,0,0,0,3.18,1.83,8.43,8.43,0,0,0,5.42-2,17.83,17.83,0,0,0,4.21-5,26.5,26.5,0,0,0,2.71-6.53,25.77,25.77,0,0,0,1-6.73,11.85,11.85,0,0,0-1.32-5.81,4.43,4.43,0,0,0-4.18-2.39,6.29,6.29,0,0,0-4.46,2.19,21,21,0,0,0-3.77,5.5,38.83,38.83,0,0,0-2.67,7.12,27,27,0,0,0-1,7A10.28,10.28,0,0,0,429.73,143.28Z"/><path class="b4d1a55f-a2c0-4d01-8b5a-5b6a0841b3d0" d="M492.38,128.24a54,54,0,0,1-2.19,8.87,54.82,54.82,0,0,1-3.58,8.24,31.37,31.37,0,0,1-4.9,6.81,22.83,22.83,0,0,1-6.17,4.61,15.94,15.94,0,0,1-7.36,1.71,13.36,13.36,0,0,1-6.25-1.35,11.52,11.52,0,0,1-4.22-3.7,16.66,16.66,0,0,1-2.43-5.49,27.78,27.78,0,0,1-.79-6.81,46.41,46.41,0,0,1,.95-9,54.15,54.15,0,0,1,2.75-9.32,55.66,55.66,0,0,1,4.33-8.67,42.82,42.82,0,0,1,5.54-7.25,26.26,26.26,0,0,1,6.41-5,14.54,14.54,0,0,1,7.08-1.87,8.79,8.79,0,0,1,5.13,1.51,11.85,11.85,0,0,1,3.63,4.14,21.22,21.22,0,0,1,2.11,6.17,40.15,40.15,0,0,1,.67,7.52A57.6,57.6,0,0,1,492.38,128.24Zm-25,15a3.32,3.32,0,0,0,3.19,1.83,8.42,8.42,0,0,0,5.41-2,18,18,0,0,0,4.22-5,26.48,26.48,0,0,0,2.7-6.53,25.77,25.77,0,0,0,1-6.73,12,12,0,0,0-1.31-5.81,4.44,4.44,0,0,0-4.18-2.39,6.27,6.27,0,0,0-4.46,2.19,21.07,21.07,0,0,0-3.78,5.5,38.83,38.83,0,0,0-2.67,7.12,27,27,0,0,0-1,7A10.29,10.29,0,0,0,467.38,143.28Z"/><path class="b4d1a55f-a2c0-4d01-8b5a-5b6a0841b3d0" d="M68.67,304.17a10,10,0,0,0,2.38-3.34A11.52,11.52,0,0,0,72,296a19.28,19.28,0,0,0-.14-2.24c-.1-.85-.21-1.73-.35-2.65s-.29-1.83-.46-2.73-.33-1.73-.48-2.47-.28-1.36-.4-1.87-.18-.81-.22-.93l-5.2,1.6c.07.27.17.67.29,1.21s.24,1.17.38,1.86.27,1.44.41,2.22.25,1.55.36,2.3.19,1.44.26,2.09a15.27,15.27,0,0,1,.1,1.61,5.88,5.88,0,0,1-.6,2.9,4.39,4.39,0,0,1-1.39,1.57,4.29,4.29,0,0,1-1.59.65,9.3,9.3,0,0,1-1.24.13H49.86a4.2,4.2,0,0,1-2.4-.72,10.29,10.29,0,0,1-2.07-1.79,20,20,0,0,1-1.87-2.41c-.6-.88-1.18-1.74-1.76-2.57L30.5,276.61l-4.61,3L36.77,296.2a7.73,7.73,0,0,1,1,2,1.4,1.4,0,0,1-.13,1.39,2.57,2.57,0,0,1-1.37,1.09,11.21,11.21,0,0,1-2.78.74,26.84,26.84,0,0,1-3.13.25,28.6,28.6,0,0,1-3.34-.11,22.13,22.13,0,0,1-3.11-.53,10,10,0,0,1-2.49-.94L19,298.7l-2.73,4.78,2.37,1.39A14.47,14.47,0,0,0,21,305.94a21,21,0,0,0,2.78.72,27.74,27.74,0,0,0,2.94.41c1,.08,2,.13,3,.13.81,0,1.6,0,2.35-.09s1.47-.14,2.14-.23q5.46-.78,7.64-3.71a11.19,11.19,0,0,0,7.8,3.57v0h12a11,11,0,0,0,3.69-.64A9.42,9.42,0,0,0,68.67,304.17Z"/><polygon class="b4d1a55f-a2c0-4d01-8b5a-5b6a0841b3d0" points="51.71 317.87 56.24 322.58 60.94 317.87 56.3 313.23 51.71 317.87"/><polygon class="b4d1a55f-a2c0-4d01-8b5a-5b6a0841b3d0" points="62.82 317.82 67.35 322.52 72.05 317.82 67.41 313.17 62.82 317.82"/><polygon class="b4d1a55f-a2c0-4d01-8b5a-5b6a0841b3d0" points="126.34 317.15 131.33 322.2 136.32 317.21 131.27 312.16 126.34 317.15"/><path class="b4d1a55f-a2c0-4d01-8b5a-5b6a0841b3d0" d="M138.12,286.54q-2.87-1.14-4.94-1.9c-1.37-.51-2.53-.93-3.49-1.27s-1.74-.58-2.37-.76-1.11-.33-1.47-.41a4.85,4.85,0,0,0-.85-.14,4.21,4.21,0,0,0-.46,0q-7.17,0-9.41,8.59l5.32,1.4a12,12,0,0,1,.93-2.58,4.21,4.21,0,0,1,1-1.34,2.17,2.17,0,0,1,1.06-.53,7.49,7.49,0,0,1,1-.08,20.37,20.37,0,0,1,2.22.61c1.11.34,2.44.79,4,1.34s3.25,1.19,5.12,1.91,3.74,1.45,5.62,2.2q-2,1.19-4.74,2.54a56.87,56.87,0,0,1-5.77,2.49,50,50,0,0,1-6.4,1.92,29.22,29.22,0,0,1-6.57.77h-6.67a4.2,4.2,0,0,1-2.4-.72,10.29,10.29,0,0,1-2.07-1.79,21.08,21.08,0,0,1-1.87-2.41c-.59-.88-1.17-1.74-1.76-2.57L91.93,276.61l-4.61,3L98.19,296.2a7.73,7.73,0,0,1,1,2,1.4,1.4,0,0,1-.12,1.39,2.64,2.64,0,0,1-1.38,1.09,11.21,11.21,0,0,1-2.78.74,26.84,26.84,0,0,1-3.13.25,28.6,28.6,0,0,1-3.34-.11A22.39,22.39,0,0,1,85.3,301a9.74,9.74,0,0,1-2.48-.94l-2.41-1.39-2.73,4.78,2.38,1.39a14.35,14.35,0,0,0,2.4,1.07,21,21,0,0,0,2.78.72,27.74,27.74,0,0,0,2.94.41c1,.08,2,.13,3,.13.82,0,1.6,0,2.35-.09s1.47-.14,2.15-.23q5.46-.78,7.63-3.71a11.18,11.18,0,0,0,8,3.59H118a34.73,34.73,0,0,0,7.43-.82,56,56,0,0,0,7.12-2.08,61.59,61.59,0,0,0,6.37-2.72c2-1,3.7-1.91,5.18-2.78s2.67-1.59,3.56-2.19l1.5-1-.72-4.82Z"/><polygon class="b4d1a55f-a2c0-4d01-8b5a-5b6a0841b3d0" points="231.29 254.39 209.27 263.88 208.95 267.22 232.51 257 231.29 254.39"/><polygon class="b4d1a55f-a2c0-4d01-8b5a-5b6a0841b3d0" points="253.87 273.83 248.82 268.78 243.89 273.77 248.88 278.82 253.87 273.83"/><path class="b4d1a55f-a2c0-4d01-8b5a-5b6a0841b3d0" d="M300.52,293.47a19.68,19.68,0,0,0-1.3-2.46c-.25-.39-.63-.89-1.14-1.53s-1.1-1.32-1.77-2.09-1.39-1.56-2.16-2.41l-2.33-2.5q-2.7-2.91-5.89-6.24L282,280.06c1.18,1.21,2.38,2.42,3.63,3.64s2.43,2.44,3.56,3.65,2.19,2.41,3.14,3.59a25.65,25.65,0,0,1,2.35,3.37,10.11,10.11,0,0,1,1.21,3.06,4,4,0,0,1-.28,2.63,5.19,5.19,0,0,1-1.11,1.56,5.46,5.46,0,0,1-1.4.94,6.08,6.08,0,0,1-1.63.46,12.13,12.13,0,0,1-4.47-.2,19.15,19.15,0,0,1-2.59-.81,12.2,12.2,0,0,0,3.29-4.23,12.45,12.45,0,0,0,1.12-5.38,8.93,8.93,0,0,0-.31-2.25,11.11,11.11,0,0,0-.91-2.37,13.65,13.65,0,0,0-1.49-2.27,10.57,10.57,0,0,0-2.08-1.92,10.84,10.84,0,0,0-2.64-1.31,9.85,9.85,0,0,0-3.2-.5,11.62,11.62,0,0,0-4.27.77,10.49,10.49,0,0,0-3.4,2.13,9.72,9.72,0,0,0-2.25,3.24,10.18,10.18,0,0,0-.81,4.08,12.35,12.35,0,0,0,1,5,11.23,11.23,0,0,0,3,4,35.46,35.46,0,0,1-3.59.26c-1.35,0-2.64.06-3.9.06h-5.48l-.7,0a6.68,6.68,0,0,1-1.05-.17,6.52,6.52,0,0,1-1.2-.44,4.16,4.16,0,0,1-1.13-.8,3.89,3.89,0,0,1-.83-1.26,4.79,4.79,0,0,1-.32-1.83v-9.6h-5.45V297a5.93,5.93,0,0,1-.19,1.47,3,3,0,0,1-.81,1.39,4.74,4.74,0,0,1-1.85,1.05,10.45,10.45,0,0,1-3.31.42H237a11.13,11.13,0,0,1-3.86-.61,10.84,10.84,0,0,1-3.22-2,26.07,26.07,0,0,1-3.25-3.48q-1.68-2.13-4-5.18l-9.92-14,23.38-10.73-2.23-5-26.08,12-1,4.76L216,289.87q.81,1.14,1.47,2.25a11.44,11.44,0,0,1,1.05,2.19,6.44,6.44,0,0,1,.39,2.12,4.18,4.18,0,0,1-.47,2,3.21,3.21,0,0,1-1.39,1.3,11.06,11.06,0,0,1-2.75.94,27.43,27.43,0,0,1-4.21.58c-1.65.13-3.58.19-5.79.19q-5.66,0-10-.13a33.47,33.47,0,0,1-7.35-.91,11.63,11.63,0,0,1-2.15-.8,4.58,4.58,0,0,1-1.4-1.08,3.86,3.86,0,0,1-.79-1.47,7.51,7.51,0,0,1-.24-2,16.78,16.78,0,0,1,.18-2.4c.13-.82.27-1.56.41-2.24s.35-1.47.59-2.35l-5.22-1.6-.24.86c-.15.53-.31,1.2-.48,2s-.34,1.73-.48,2.72a21.57,21.57,0,0,0-.22,3,10.28,10.28,0,0,0,2.38,7.08,12.2,12.2,0,0,0,6.24,3.57,26.88,26.88,0,0,0,3.77.71c1.36.17,2.82.29,4.39.36s3.23.12,5,.13,3.65,0,5.62,0c1.43,0,2.85,0,4.24,0s2.73-.09,4-.23a26.32,26.32,0,0,0,3.61-.64,12.47,12.47,0,0,0,3.09-1.23,9.24,9.24,0,0,0,2.42-2,8.78,8.78,0,0,0,1.61-3,38.93,38.93,0,0,0,2.79,2.9,16.14,16.14,0,0,0,3,2.22,14.16,14.16,0,0,0,3.53,1.41,18.13,18.13,0,0,0,3.48.39v.1h5.56c3.95,0,6.93-1,8.94-3a7.42,7.42,0,0,0,3.24,2.26,13.32,13.32,0,0,0,4.66.75H264a69.26,69.26,0,0,0,7.89-.42,35.63,35.63,0,0,0,6.38-1.26c.21.12.49.25.83.4l1,.47c.37.17.77.35,1.19.52a21.25,21.25,0,0,0,4.39,1.62,16.41,16.41,0,0,0,4.09.53,13.78,13.78,0,0,0,3.88-.53,11.6,11.6,0,0,0,3.23-1.53,9.73,9.73,0,0,0,3.89-5.42,16.6,16.6,0,0,0,.55-2.76,10.32,10.32,0,0,0-.08-2.49A10.21,10.21,0,0,0,300.52,293.47Zm-17.34,1.14a7.07,7.07,0,0,1-1.06,1.92,8.31,8.31,0,0,1-1.6,1.59,9.79,9.79,0,0,1-2,1.16,21.85,21.85,0,0,1-2.67-1.6,9.49,9.49,0,0,1-1.82-1.64,5.72,5.72,0,0,1-1-1.86,6.81,6.81,0,0,1-.33-2.24,4.41,4.41,0,0,1,.42-1.95,4.51,4.51,0,0,1,1.16-1.54,5.57,5.57,0,0,1,1.73-1,6.45,6.45,0,0,1,2.19-.36,5.67,5.67,0,0,1,1.56.27,5.83,5.83,0,0,1,1.75.9,5.63,5.63,0,0,1,1.46,1.63,4.68,4.68,0,0,1,.6,2.45A6.71,6.71,0,0,1,283.18,294.61Z"/><path class="b4d1a55f-a2c0-4d01-8b5a-5b6a0841b3d0" d="M308.42,260.41a9.49,9.49,0,0,0-3.28,1c-2.33,1.16-3.95,3.3-4.84,6.42l4.58,1.36a8.21,8.21,0,0,1,.95-2.15,3.56,3.56,0,0,1,1.39-1.25,6.29,6.29,0,0,1,2.1-.58,28.88,28.88,0,0,1,3.08-.15h14v-4.84h-14A32.23,32.23,0,0,0,308.42,260.41Z"/><rect class="b4d1a55f-a2c0-4d01-8b5a-5b6a0841b3d0" x="311.55" y="269.71" width="5.48" height="37.06"/><path class="b4d1a55f-a2c0-4d01-8b5a-5b6a0841b3d0" d="M374.11,294.53a19.24,19.24,0,0,0-1.31-2.3l-3.25-4.88-2.43-3.65c-.7-1.05-1.29-1.94-1.77-2.69l-1.28-1.95c-.37-.55-.68-1-.95-1.45s-.54-.81-.79-1.2l-4.65,3,10.51,15.87a10.33,10.33,0,0,1,1.3,2.53,2.42,2.42,0,0,1,.09,1.76,2.57,2.57,0,0,1-1.37,1.09,11.21,11.21,0,0,1-2.78.74,24.26,24.26,0,0,1-3.1.24,30.78,30.78,0,0,1-3.34-.13,21.27,21.27,0,0,1-3.13-.53,9.68,9.68,0,0,1-2.49-.94L351,298.7l-2.72,4.78,2.4,1.36a13.24,13.24,0,0,0,2.4,1.1,19.92,19.92,0,0,0,2.76.72,27.38,27.38,0,0,0,2.94.41c1,.08,2,.13,3,.13.81,0,1.6,0,2.35-.09s1.47-.14,2.14-.23q6.6-1,8.42-5.05a6.21,6.21,0,0,0,.6-2.42A9.35,9.35,0,0,0,375,297,12.36,12.36,0,0,0,374.11,294.53Z"/><path class="b4d1a55f-a2c0-4d01-8b5a-5b6a0841b3d0" d="M443.09,291.14c-.14-.92-.29-1.83-.47-2.73s-.33-1.73-.48-2.47-.27-1.36-.39-1.87-.19-.81-.23-.93l-5.19,1.6c.07.27.17.67.28,1.21s.25,1.17.39,1.86.27,1.44.4,2.22.26,1.55.36,2.3.19,1.44.27,2.09.09,1.18.09,1.61a5.89,5.89,0,0,1-.59,2.9,4.59,4.59,0,0,1-1.39,1.57,4.4,4.4,0,0,1-1.6.65,9.19,9.19,0,0,1-1.23.13h-7a5.93,5.93,0,0,1-2.7-.52,4.24,4.24,0,0,1-1.58-1.37,5,5,0,0,1-.75-1.87,10.91,10.91,0,0,1-.19-2V265.36h-5.45v30.12a14.76,14.76,0,0,1-.14,1.94,3.41,3.41,0,0,1-.88,1.87,5.48,5.48,0,0,1-2.42,1.42,15.22,15.22,0,0,1-4.72.57h-4v-5.49q0-7.8-3.91-11.46a9.39,9.39,0,0,0-3.22-1.91,11.37,11.37,0,0,0-3.86-.64,11.19,11.19,0,0,0-4.41.87,11.43,11.43,0,0,0-3.66,2.47,14.38,14.38,0,0,0-1.19,1.53,12.79,12.79,0,0,0-1.11,2.13,15.51,15.51,0,0,0-.84,2.76,16.07,16.07,0,0,0-.34,3.47,12.78,12.78,0,0,0,1.07,5.5,10.33,10.33,0,0,0,6.56,5.64,14.6,14.6,0,0,0,4.13.61H398a13.25,13.25,0,0,1-.71,4.7,7.15,7.15,0,0,1-2.22,3.11,11.51,11.51,0,0,1-4.73,2.06,34.12,34.12,0,0,1-7.37.66v5.49a37.56,37.56,0,0,0,9.22-1,17.17,17.17,0,0,0,6.34-3,12.13,12.13,0,0,0,3.72-5,18.78,18.78,0,0,0,1.2-7.1h4.36v0c4.84-.05,8.36-1.17,10.53-3.4a11.32,11.32,0,0,0,3.76,2.61,11,11,0,0,0,3.85.74v.07h7.4a11.07,11.07,0,0,0,3.69-.64,9.38,9.38,0,0,0,3.28-1.95,10,10,0,0,0,2.39-3.34,11.52,11.52,0,0,0,.91-4.8,21.79,21.79,0,0,0-.14-2.24C443.34,292.94,443.23,292.06,443.09,291.14ZM398,301.28h-5.33c-.2,0-.45,0-.75,0s-.63-.07-1-.14a6.44,6.44,0,0,1-1.13-.32,6,6,0,0,1-1.13-.57q-2.26-1.44-2.27-5.19A9,9,0,0,1,388,289.3a5.34,5.34,0,0,1,4.46-2c.23,0,.53,0,.9.05a4.4,4.4,0,0,1,1.16.27,4.9,4.9,0,0,1,1.23.74,4.52,4.52,0,0,1,1.12,1.47,9.77,9.77,0,0,1,.81,2.42,16.59,16.59,0,0,1,.32,3.58Z"/><polygon class="b4d1a55f-a2c0-4d01-8b5a-5b6a0841b3d0" points="441.78 271.22 436.73 266.17 431.8 271.16 436.79 276.2 441.78 271.22"/><rect class="b4d1a55f-a2c0-4d01-8b5a-5b6a0841b3d0" x="452.05" y="265.36" width="5.48" height="41.38"/><path class="b4d1a55f-a2c0-4d01-8b5a-5b6a0841b3d0" d="M492.41,297a12.36,12.36,0,0,0-.87-2.42,20.65,20.65,0,0,0-1.3-2.3c-1.25-1.86-2.33-3.48-3.25-4.88l-2.44-3.65c-.7-1.05-1.29-1.94-1.77-2.69l-1.28-1.95c-.37-.55-.68-1-.95-1.45s-.54-.81-.79-1.2l-4.65,3,10.51,15.87a10.33,10.33,0,0,1,1.3,2.53,2.49,2.49,0,0,1,.1,1.76,2.64,2.64,0,0,1-1.38,1.09,11.21,11.21,0,0,1-2.78.74,24.26,24.26,0,0,1-3.1.24,30.78,30.78,0,0,1-3.34-.13,21.27,21.27,0,0,1-3.13-.53,9.68,9.68,0,0,1-2.49-.94l-2.42-1.36-2.72,4.78,2.41,1.36a12.84,12.84,0,0,0,2.39,1.1,19.92,19.92,0,0,0,2.76.72,27.38,27.38,0,0,0,2.94.41c1,.08,2,.13,3,.13.81,0,1.6,0,2.35-.09s1.47-.14,2.15-.23q6.59-1,8.41-5.05a6.21,6.21,0,0,0,.6-2.42A9.35,9.35,0,0,0,492.41,297Z"/><path class="b4d1a55f-a2c0-4d01-8b5a-5b6a0841b3d0" d="M492.66,342.43H20.18a3.09,3.09,0,1,1,0-6.17H492.66a3.09,3.09,0,0,1,0,6.17Z"/><path class="b4d1a55f-a2c0-4d01-8b5a-5b6a0841b3d0" d="M64.55,410.43V386q0-6-1.63-8.2t-5.66-2.2a9.51,9.51,0,0,0-7.47,3c-1.78,2-2.67,4.78-2.67,8.39v23.43H40.35V386q0-6-1.63-8.2c-1.09-1.47-3-2.2-5.63-2.2a9.48,9.48,0,0,0-7.47,3c-1.8,2-2.7,4.79-2.7,8.34v23.43H16.26V370.79h6.36v5.59a14.81,14.81,0,0,1,5.26-5,14.74,14.74,0,0,1,7.1-1.63,12.56,12.56,0,0,1,6.33,1.5A12.49,12.49,0,0,1,45.83,376a16.71,16.71,0,0,1,5.66-4.72,15.91,15.91,0,0,1,7.07-1.5,15.1,15.1,0,0,1,6.7,1.39,9.87,9.87,0,0,1,4.36,4,11.24,11.24,0,0,1,1.22,3.63,42.33,42.33,0,0,1,.37,6.66v24.95Z"/><path class="b4d1a55f-a2c0-4d01-8b5a-5b6a0841b3d0" d="M97.11,370.79V395.1c0,3.91.62,6.61,1.83,8.13s3.3,2.27,6.2,2.27q5.77,0,8.74-3.38t3-10V370.79h6.66v39.64h-6.36v-5.92a13.81,13.81,0,0,1-5.37,5.18,16.34,16.34,0,0,1-7.74,1.74A17.14,17.14,0,0,1,96.82,410a10.6,10.6,0,0,1-4.7-4,9.92,9.92,0,0,1-1.33-3.38,32.5,32.5,0,0,1-.41-6.17V370.79Z"/><path class="b4d1a55f-a2c0-4d01-8b5a-5b6a0841b3d0" d="M140.16,397.55h6.4a8.46,8.46,0,0,0,2.9,6.1q2.53,2.09,7.2,2.08a12,12,0,0,0,6.77-1.68,5.3,5.3,0,0,0,2.48-4.62,4.42,4.42,0,0,0-1.23-3.35,11.35,11.35,0,0,0-4.84-2l-7.43-1.93q-6.3-1.51-8.75-4c-1.65-1.67-2.47-4-2.47-7.13a10,10,0,0,1,4-8.34q4-3.09,10.9-3.09t11.25,3.29a10.69,10.69,0,0,1,4.18,8.85v.15H165a6.33,6.33,0,0,0-2.57-4.88,10.67,10.67,0,0,0-6.39-1.71,11,11,0,0,0-6.12,1.4,4.64,4.64,0,0,0-2.1,4.11,3.7,3.7,0,0,0,1.31,3,12.3,12.3,0,0,0,4.91,1.91l6.44,1.52c4.59,1.09,7.75,2.47,9.48,4.17s2.59,4.1,2.59,7.23a11.51,11.51,0,0,1-4.35,9.6q-4.35,3.43-12.16,3.43-7.63,0-11.72-3.63T140.16,397.55Z"/><path class="b4d1a55f-a2c0-4d01-8b5a-5b6a0841b3d0" d="M189.74,363.5v-7.59h6.66v7.59Zm0,46.93V370.79h6.66v39.64Z"/><path class="b4d1a55f-a2c0-4d01-8b5a-5b6a0841b3d0" d="M242.14,384a8.52,8.52,0,0,0-2.95-6.26,10.88,10.88,0,0,0-7.23-2.21,9.81,9.81,0,0,0-8.34,3.89q-3,3.89-3,11.1t2.83,11.18a9.33,9.33,0,0,0,8,3.92,11,11,0,0,0,7.45-2.41,10.86,10.86,0,0,0,3.46-7h6.37q-.53,7.29-5.14,11.37t-12.44,4.1q-8.13,0-12.78-5.59t-4.65-15.32q0-10,4.85-15.61T232,369.49c5,0,9,1.31,12,3.91a14.12,14.12,0,0,1,4.8,10.56Z"/><path class="b4d1a55f-a2c0-4d01-8b5a-5b6a0841b3d0" d="M279.18,410.43V373H266.93v-5.36c4.44-.06,7.78-.89,10-2.52s3.57-4.18,4-7.66h5.18v53Z"/><path class="b4d1a55f-a2c0-4d01-8b5a-5b6a0841b3d0" d="M313.23,384.74q0-13.39,4.62-20.35t13.55-7q9,0,13.62,6.94t4.66,20.37q0,13.36-4.64,20.28t-13.64,6.92q-8.92,0-13.55-6.92T313.23,384.74Zm7.25,0q0,11,2.63,16a9.39,9.39,0,0,0,16.6,0q2.6-5,2.61-16t-2.61-16.07a9.36,9.36,0,0,0-16.6,0Q320.47,373.76,320.48,384.74Z"/><path class="b4d1a55f-a2c0-4d01-8b5a-5b6a0841b3d0" d="M364.07,384.74q0-13.39,4.63-20.35t13.54-7q9,0,13.62,6.94t4.66,20.37q0,13.36-4.64,20.28t-13.64,6.92q-8.91,0-13.54-6.92T364.07,384.74Zm7.25,0q0,11,2.63,16a9.39,9.39,0,0,0,16.6,0q2.61-5,2.61-16t-2.61-16.07a9.36,9.36,0,0,0-16.6,0Q371.33,373.76,371.32,384.74Z"/><path class="b4d1a55f-a2c0-4d01-8b5a-5b6a0841b3d0" d="M418.91,410.43v-8.26h7.59v8.26Z"/><path class="b4d1a55f-a2c0-4d01-8b5a-5b6a0841b3d0" d="M447.41,363.5v-7.59h6.66v7.59Zm0,46.93V370.79h6.66v39.64Z"/><path class="b4d1a55f-a2c0-4d01-8b5a-5b6a0841b3d0" d="M473.49,410.43V370.79h6.44v7.11a13.11,13.11,0,0,1,4.32-6,11,11,0,0,1,6.67-2H492a5,5,0,0,1,.66.1v7l-.59-.05c-.22,0-.55,0-1,0q-5.32,0-8.13,2.91c-1.85,1.93-2.79,4.75-2.79,8.45v22.06Z"/></svg>