<svg xmlns="http://www.w3.org/2000/svg" xmlns:xlink="http://www.w3.org/1999/xlink" width="500" height="500" viewBox="0 0 500 500"><defs><style>.a35bae40-94e8-4be6-adb0-0aac0cc979c5,.bd96e6ce-05ca-4071-bcef-b2caab3760f4,.e6a88434-9911-42dd-8e1b-e30db5ea07ad{fill:none;}.b79961fd-5a6b-4c41-aaf7-efe0632c8f06{fill:#f2b9ed;}.ef7e60c2-b57e-4702-9b72-4022da58422b{clip-path:url(#a71e474e-c5da-470c-a579-9411dbfd9571);}.a1c5204e-0891-4997-a625-63aa8e40af14{fill:#f9e1ba;}.ff3de4a8-2f40-4f48-a348-7a6ce8391bfe{fill:#7d8af5;}.a8de2fde-51fd-43df-91e5-e8c0db7d1dcb{fill:#eeeff0;}.f22b3b3b-3716-4b69-880a-2ff9a6bd8b86{fill:#a3b0f7;}.a0c2a6c1-7457-4ed7-bb82-3d2a0614714c{clip-path:url(#be24c40d-f559-4e13-a56b-5ce9e8fde6b1);}.febb4a8e-19eb-4d9c-9d1c-948fb3f9655c{fill:#f2ce99;}.a35bae40-94e8-4be6-adb0-0aac0cc979c5,.bd96e6ce-05ca-4071-bcef-b2caab3760f4{stroke:#56357c;stroke-linecap:round;stroke-linejoin:round;}.a35bae40-94e8-4be6-adb0-0aac0cc979c5{stroke-width:0.75px;}.bbf5fe50-23cf-4ec4-816c-64a7e6c4c835{fill:#56357c;}.a5d1d8e6-d024-42aa-a307-e17d68020544{fill:#d3dbe2;}.f6b9a9c7-bb30-418f-bc5a-4b7c21864f2d{fill:#e493ad;}.ae3b3ad0-ccc4-47e1-969e-060e941b0d22{fill:#d36e92;}.bf5a1216-c9c1-493e-913e-0c1150f435c4{fill:#fff;}.b747d212-91ff-45fd-a4ee-a905fe6f0333{clip-path:url(#b2acbe93-c864-437c-8c6f-e8270b3c4c09);}.ada9e518-9210-4b07-9224-1158b764e060{fill:#5669d8;}</style><clipPath id="a71e474e-c5da-470c-a579-9411dbfd9571"><path class="e6a88434-9911-42dd-8e1b-e30db5ea07ad" d="M125.67,128.59,68.11,229.84a99.55,99.55,0,0,0,13,116.31l78.51,86a99.58,99.58,0,0,0,114.65,23.57l106.07-48.09a99.54,99.54,0,0,0,57.84-101.75L425.24,190.17a99.55,99.55,0,0,0-78.9-86.45L232.26,80.27A99.54,99.54,0,0,0,125.67,128.59Z"/></clipPath><clipPath id="be24c40d-f559-4e13-a56b-5ce9e8fde6b1"><rect class="e6a88434-9911-42dd-8e1b-e30db5ea07ad" width="500" height="500"/></clipPath><clipPath id="b2acbe93-c864-437c-8c6f-e8270b3c4c09"><path class="e6a88434-9911-42dd-8e1b-e30db5ea07ad" d="M251.32,101.15a20.37,20.37,0,0,1-2.33-5s16.1-13.39,25.35,5.43a17.68,17.68,0,0,1-6.87,4.85A53.79,53.79,0,0,0,251.32,101.15Z"/></clipPath></defs><g id="a980da74-996f-40ee-8f6c-c7fa01a05826" data-name="BACKGROUND"><rect class="e6a88434-9911-42dd-8e1b-e30db5ea07ad" width="500" height="500"/></g><g id="bce5a76d-6a34-4109-bade-319f92dd675c" data-name="OBJECTS"><path class="b79961fd-5a6b-4c41-aaf7-efe0632c8f06" d="M125.67,128.59,68.11,229.84a99.55,99.55,0,0,0,13,116.31l78.51,86a99.58,99.58,0,0,0,114.65,23.57l106.07-48.09a99.54,99.54,0,0,0,57.84-101.75L425.24,190.17a99.55,99.55,0,0,0-78.9-86.45L232.26,80.27A99.54,99.54,0,0,0,125.67,128.59Z"/><g class="ef7e60c2-b57e-4702-9b72-4022da58422b"><path class="a1c5204e-0891-4997-a625-63aa8e40af14" d="M202.46,58.64s-31.2,67.41,3.53,56.29c45.33-14.5,32,16.06,65,32,16.41,7.92,45.3-43.84,70.75-25.45s40.74-4.93,39.14-24.15S291.44,11.83,202.46,58.64Z"/><path class="a1c5204e-0891-4997-a625-63aa8e40af14" d="M391,439.84s-16.42-24.11-9.45-57.9,27.77-47.63,16.38-72.67,70.58-6.31,43.91,55.6S391,439.84,391,439.84Z"/><path class="ff3de4a8-2f40-4f48-a348-7a6ce8391bfe" d="M59,307.67s20.13,16.46,39.88,19.6,30.42,44.29,12.5,47.45S69.14,389.3,61.6,419.07,33.37,345.14,59,307.67Z"/></g><polygon class="a8de2fde-51fd-43df-91e5-e8c0db7d1dcb" points="126.87 304.27 120.51 306.19 123.86 311.92 122.34 318.38 128.97 318.35 133.81 322.9 137.1 317.13 143.46 315.22 140.11 309.49 141.63 303.02 135 303.05 130.16 298.51 126.87 304.27"/><polygon class="a8de2fde-51fd-43df-91e5-e8c0db7d1dcb" points="216.11 94.82 212.07 94.05 212.26 98.16 209.57 101.28 213.23 103.17 214.59 107.05 218.05 104.83 222.09 105.6 221.9 101.49 224.58 98.37 220.93 96.48 219.57 92.6 216.11 94.82"/><path class="a1c5204e-0891-4997-a625-63aa8e40af14" d="M103.75,354.23a4.52,4.52,0,1,0,4.52-4.51A4.52,4.52,0,0,0,103.75,354.23Z"/><path class="a8de2fde-51fd-43df-91e5-e8c0db7d1dcb" d="M345.29,171.26a4.52,4.52,0,1,0,4.51-4.52A4.52,4.52,0,0,0,345.29,171.26Z"/><rect class="ff3de4a8-2f40-4f48-a348-7a6ce8391bfe" x="337.73" y="121.6" width="24.14" height="15.42" transform="translate(530.61 455.49) rotate(-139.29)"/><rect class="a1c5204e-0891-4997-a625-63aa8e40af14" x="180.64" y="142.19" width="28.3" height="10.71" transform="matrix(0.5, -0.87, 0.87, 0.5, -30.39, 242.47)"/><rect class="f22b3b3b-3716-4b69-880a-2ff9a6bd8b86" x="375.04" y="350.08" width="21.94" height="8.3" transform="translate(-134.69 296.25) rotate(-36.19)"/><g class="a0c2a6c1-7457-4ed7-bb82-3d2a0614714c"><path class="a1c5204e-0891-4997-a625-63aa8e40af14" d="M321.31,433.79s33.05,100.65,38,134c0,0-56.59,12.83-86.72,15.39,0,0-20-75.93-28.33-102.53,0,0-1.28,7.65-16.93,108.94,0,0-36-7.73-82.76-27.9,0,0,7.27-115,23.15-164.12S285.76,356,321.31,433.79Z"/><path class="febb4a8e-19eb-4d9c-9d1c-948fb3f9655c" d="M247.49,394.09s-11.3,46.52-18.37,65.26c0,0-33.61-1.24-52-5l39.1-70Z"/><path class="febb4a8e-19eb-4d9c-9d1c-948fb3f9655c" d="M294.44,439.5l29.48,135.66,35.39-7.39s-20.75-91.32-38-134Z"/><polygon class="febb4a8e-19eb-4d9c-9d1c-948fb3f9655c" points="250 477.84 283.85 581.91 272.59 583.16 244.26 480.63 250 477.84"/><polygon class="febb4a8e-19eb-4d9c-9d1c-948fb3f9655c" points="243.04 488.3 216.24 586.81 227.33 589.57 243.04 488.3"/><line class="a35bae40-94e8-4be6-adb0-0aac0cc979c5" x1="244.26" y1="480.63" x2="266.53" y2="469.81"/><path class="a35bae40-94e8-4be6-adb0-0aac0cc979c5" d="M173.64,573.23S198.33,429,213.39,371.14"/><path class="a35bae40-94e8-4be6-adb0-0aac0cc979c5" d="M300.59,402.67s21.21,74.07,46.66,167.74"/><line class="a35bae40-94e8-4be6-adb0-0aac0cc979c5" x1="242.52" y1="491.63" x2="237.78" y2="522.05"/><polygon class="bbf5fe50-23cf-4ec4-816c-64a7e6c4c835" points="246.03 486.45 254.49 475.65 244.26 480.63 246.03 486.45"/><path class="a8de2fde-51fd-43df-91e5-e8c0db7d1dcb" d="M241.58,180.42s19.08,19.55,52.32,7.42c0,0,47.31,16,45.86,40.08S321.34,411.5,321.34,411.5s-69.12-39.21-141.59-53.64C179.75,357.86,198.64,242.34,241.58,180.42Z"/><path class="a5d1d8e6-d024-42aa-a307-e17d68020544" d="M249.45,187s-5.93,28.25,15.71,54.89L251.94,376.28l-32.72-5.14s10.74-194.68,17-195.36C236.26,175.78,245.45,184.61,249.45,187Z"/><path class="bbf5fe50-23cf-4ec4-816c-64a7e6c4c835" d="M320.05,420.94l1.29-9.44s-70.93-47-141.59-53.64a75.87,75.87,0,0,0-6.11,14S285,403.17,320.05,420.94Z"/><path class="f6b9a9c7-bb30-418f-bc5a-4b7c21864f2d" d="M248.42,71.51c-1.19,5.28-2.49,12-2.49,12s-7.8-5.77-12.89,9.42c-5.41,16.15,5.69,18.11,5.69,18.11s-2.53,8.77-.31,15.1c2.75,7.87,10.8,12.58,10.8,12.58l-5.05,27.57-2.59,14.12s9.4,10.65,23.83,13.15c14.54,1.75,28.49-5.73,28.49-5.73l1.71-16.14L298.34,146s9.07-2.2,14-8.95c3.94-5.42,4-14.55,4-14.55s11.19,1.32,10.66-15.7c-.51-16-9.64-12.73-9.64-12.73s.69-6.83,1.07-12.22c0,0,1.1-24.54-31.47-29.32S248.42,71.51,248.42,71.51Z"/><path class="ae3b3ad0-ccc4-47e1-969e-060e941b0d22" d="M287,52.48c32.57,4.78,31.47,29.32,31.47,29.32-.38,5.39-1.07,12.22-1.07,12.22s9.13-3.29,9.64,12.73c.53,17-10.66,15.7-10.66,15.7s-.1,9.13-4,14.55c-4.9,6.75-14,8.95-14,8.95l-2.73,25.75-1.71,16.14a51.32,51.32,0,0,1-5.87,2.53l3.31-42.82s18.41-9.85,19.21-28c0,0,2.39-26.11,2.39-33.09S310,59.52,287,52.48Z"/><path class="bbf5fe50-23cf-4ec4-816c-64a7e6c4c835" d="M252.39,140.56s19.84,12.21,42.35,6.22c0,0-6,10.9-22.87,8.42S252.39,140.56,252.39,140.56Z"/><path class="a35bae40-94e8-4be6-adb0-0aac0cc979c5" d="M317.18,114.23s3.15-1.51,2.59-4.1-2.84-2.16-2.53-4.82"/><path class="a35bae40-94e8-4be6-adb0-0aac0cc979c5" d="M318.94,98.83s5.1-1.5,4.79,7.65"/><path class="a35bae40-94e8-4be6-adb0-0aac0cc979c5" d="M239.75,103.58s-2.58-2.36-1.3-4.68,3.34-1.25,3.81-3.89"/><path class="a35bae40-94e8-4be6-adb0-0aac0cc979c5" d="M243,87.68s-4.45-2.91-6.78,5.95"/><path class="a35bae40-94e8-4be6-adb0-0aac0cc979c5" d="M271.47,110.2s-5,2.61-1.2,6.2"/><path class="a35bae40-94e8-4be6-adb0-0aac0cc979c5" d="M284.52,118.49c4.63-2.35.63-6.28.63-6.28s-2.68-2.37-1.3-8.44"/><path class="a35bae40-94e8-4be6-adb0-0aac0cc979c5" d="M273.3,115.88s1.25-1.21,2.67.48"/><path class="a35bae40-94e8-4be6-adb0-0aac0cc979c5" d="M279.2,116.74s1.26-1.21,2.67.49"/><path class="bbf5fe50-23cf-4ec4-816c-64a7e6c4c835" d="M286.14,106.74a11.58,11.58,0,0,1,5.23-5.6,12.22,12.22,0,0,1,8-1.22,17.3,17.3,0,0,1,3.78,1.18,13.88,13.88,0,0,1,3.37,2.15,9.82,9.82,0,0,1,3.62,6.85.38.38,0,0,1-.37.4.37.37,0,0,1-.3-.14l-.05,0a16.86,16.86,0,0,0-5-4,20.87,20.87,0,0,0-2.83-1.23c-1-.33-2-.63-3-.85a12.6,12.6,0,0,0-5.88.17,19.87,19.87,0,0,0-5.94,2.83l0,0a.38.38,0,0,1-.53-.11A.36.36,0,0,1,286.14,106.74Z"/><path class="bf5a1216-c9c1-493e-913e-0c1150f435c4" d="M251.32,101.16a20.8,20.8,0,0,1-2.33-5s16.05-13.4,25.35,5.43a17.7,17.7,0,0,1-6.9,4.86A51.88,51.88,0,0,0,251.32,101.16Z"/><g class="b747d212-91ff-45fd-a4ee-a905fe6f0333"><path class="bbf5fe50-23cf-4ec4-816c-64a7e6c4c835" d="M253.35,98.6a8.26,8.26,0,1,0,9.35-7A8.26,8.26,0,0,0,253.35,98.6Z"/></g><path class="bbf5fe50-23cf-4ec4-816c-64a7e6c4c835" d="M274,101.63a25.26,25.26,0,0,0-4.64-6.4,11.52,11.52,0,0,0-6.14-3.16,15.4,15.4,0,0,0-7.1.44,20.57,20.57,0,0,0-6.78,3.8l0,0a.39.39,0,0,1-.54,0,.41.41,0,0,1-.06-.37,12.58,12.58,0,0,1,6-6.77A14.13,14.13,0,0,1,264,87.8a12.5,12.5,0,0,1,4.57,1.82A13.27,13.27,0,0,1,272,93a14.79,14.79,0,0,1,2.7,8.52.38.38,0,0,1-.38.38.39.39,0,0,1-.34-.2Z"/><path class="bbf5fe50-23cf-4ec4-816c-64a7e6c4c835" d="M262.55,119s14.35,2.91,28.49,4.3c0,0-5.76,12.06-16.15,10.5C263.86,132.14,262.55,119,262.55,119Z"/><path class="ae3b3ad0-ccc4-47e1-969e-060e941b0d22" d="M265.46,127.38s7.94-.58,10.1,2.45c0,0,2.79-2,9.54.92,0,0-3.23,3.9-10.21,3.06A12.33,12.33,0,0,1,265.46,127.38Z"/><path class="a8de2fde-51fd-43df-91e5-e8c0db7d1dcb" d="M262.55,119s13,10.38,28.49,4.3C291,123.31,276.76,120.86,262.55,119Z"/><path class="bbf5fe50-23cf-4ec4-816c-64a7e6c4c835" d="M306.49,88.68a2.83,2.83,0,0,0,3.23-4.39,17.64,17.64,0,0,0-10.15-6.79c-10.87-2.57-6.42,6.45.6,8.88C302.44,87.16,304.6,88,306.49,88.68Z"/><path class="bbf5fe50-23cf-4ec4-816c-64a7e6c4c835" d="M259,79.28a2.83,2.83,0,0,1-.76-5.39,17.63,17.63,0,0,1,12.15-1.16c10.8,2.89,2.6,8.72-4.74,7.53C263.33,79.87,261.05,79.55,259,79.28Z"/><path class="bd96e6ce-05ca-4071-bcef-b2caab3760f4" d="M296.34,94.72s4.33-1.27,7.35,1.24"/><path class="bbf5fe50-23cf-4ec4-816c-64a7e6c4c835" d="M241.69,82.49s4.39-.28,3.43,3.75c-1.42,6,1.23,3.09,3.27,2.64s2.86-1.28,4.63-10.4,11.28-21.31,17.15-19,6.05,9.52,2.17,10.07c0,0,16.25,2.86,13.49-10.36,0,0,2.62,13.09,17.86,10.58,0,0,.45,10,9.83,14.1,0,0-.31,6.72-.94,13.45,0,0-.32,2,2.7,2s1.38-1.9,3.23-5.52c0,0,4.85-7.71,7.34-10.82,0,0,6.76.56,9.25-7.59s-1.43-12.32-1.43-12.32,4.77-6.94-3.39-13.65c-5.84-4.8-13.1-1.81-13.1-1.81s.85-9.65-3.47-10.82c0,0-1.5,6.16-5.16,6.49,0,0-4.76-17.72-21.43-16.13-13.82,1.31-16.94,11.54-16.94,11.54s-4.08-1.34-1.32-7.52c0,0-5.39,3.79-5.39,8.78a9,9,0,0,0-5.65-2.49s1.5,1.66.83,5c0,0-17.92-6.1-20.46,13.78,0,0-1.9,13,5.12,14.53Z"/><path class="a35bae40-94e8-4be6-adb0-0aac0cc979c5" d="M327.22,111.57a3.82,3.82,0,0,1,1.18,1.27c.82,1.42.66,3-.36,3.62s-2.49-.09-3.31-1.5-.65-3,.36-3.62"/><path class="bbf5fe50-23cf-4ec4-816c-64a7e6c4c835" d="M322.11,117a1.71,1.71,0,1,1-1.7-1.71A1.7,1.7,0,0,1,322.11,117Z"/><path class="ae3b3ad0-ccc4-47e1-969e-060e941b0d22" d="M233.55,107.66a35.53,35.53,0,0,0,6.63-2.26l-1.45,5.65A7.78,7.78,0,0,1,233.55,107.66Z"/><path class="f6b9a9c7-bb30-418f-bc5a-4b7c21864f2d" d="M378.48,206.35l4.1,31.91s27.64-1.26,31.91-13.57,9.83-10.22-14.05-43.17Z"/><path class="ae3b3ad0-ccc4-47e1-969e-060e941b0d22" d="M382.58,238.26s27.64-1.26,31.91-13.57c4.08-11.76,9.34-10.38-11-39C403.46,185.72,407.15,219.36,382.58,238.26Z"/><path class="f6b9a9c7-bb30-418f-bc5a-4b7c21864f2d" d="M400.44,181.52S396.15,200.08,388.2,207s-18.77,3.47-16.12-15.29c0,0-13.58,1.94-9-8.58,0,0-7.45-3.47-2.55-12.15,0,0-4.19-3.57,2.34-9.29,0,0-3.77-6.64,5.52-9.09l14.29-1.83a14.94,14.94,0,0,0,3.37-6.74c.51-3.58,2.25-14.09,10-12.15s3.17,6.23,1.13,14.5a30.2,30.2,0,0,0,0,4.79c.2,2.66-1,8.49-1,8.49A132.75,132.75,0,0,1,400.44,181.52Z"/><path class="a35bae40-94e8-4be6-adb0-0aac0cc979c5" d="M382.82,151s11.3,0,13.48,8.89"/><path class="a35bae40-94e8-4be6-adb0-0aac0cc979c5" d="M363,162s4-2.69,19.06-.86"/><path class="a35bae40-94e8-4be6-adb0-0aac0cc979c5" d="M382.08,169.54s-18.05-2.14-21.41,1.71"/><path class="a35bae40-94e8-4be6-adb0-0aac0cc979c5" d="M363.22,183.4s3.09-4,14.86-4"/><path class="f6b9a9c7-bb30-418f-bc5a-4b7c21864f2d" d="M139.58,172.84l-14.8,28.57s-25.53-10.66-25.32-23.69-5.72-13,28-35.73Z"/><path class="f6b9a9c7-bb30-418f-bc5a-4b7c21864f2d" d="M127.47,142s-2.34,18.9,2.76,28.14,16.43,9.7,20.38-8.84c0,0,12.09,6.48,11.38-5,0,0,8.19-.71,6.56-10.54,0,0,5.16-1.92,1-9.53,0,0,5.83-4.94-2.06-10.43l-12.79-6.63a14.94,14.94,0,0,1-.86-7.48c.75-3.53,2.72-14-5.23-14.85s-5.11,4.77-6,13.24a31,31,0,0,1-1.64,4.5c-1.11,2.43-1.95,8.32-1.95,8.32A131.45,131.45,0,0,0,127.47,142Z"/><path class="a35bae40-94e8-4be6-adb0-0aac0cc979c5" d="M154.47,119.39s-10.61-3.87-15.7,3.73"/><path class="a35bae40-94e8-4be6-adb0-0aac0cc979c5" d="M169.33,136.45s-2.86-3.91-17.62-7.35"/><path class="a35bae40-94e8-4be6-adb0-0aac0cc979c5" d="M148.82,137s17.69,4.18,19.53,8.95"/><path class="a35bae40-94e8-4be6-adb0-0aac0cc979c5" d="M161.79,156.52s-1.54-4.79-12.6-8.83"/><path class="ae3b3ad0-ccc4-47e1-969e-060e941b0d22" d="M121.63,179.39l14.54-5.1s8.09-1.72,14.44-13c0,0-2.5,16.23-12.86,15.08L129,193.27Z"/><path class="ff3de4a8-2f40-4f48-a348-7a6ce8391bfe" d="M255.24,241.37c0,52-46,211.89-46,211.89-53,5-97.58-8-97.58-8C129.19,379.47,160,291.09,160,291.09,69.42,307.54,40.29,302.68,35.61,259.45s73-103.8,73-103.8c1.92,17.33,20.26,23,26.64,24.42a1.41,1.41,0,0,1,.83,2.21A110.73,110.73,0,0,0,126,200.52S168.6,174,187.37,174c9.38,0,22,1.45,32.27,2.91,1.46.21,5.88-26.55,26.84-23.21l-4.9,26.73C238,189.36,234,211.33,255.24,241.37Z"/><path class="ada9e518-9210-4b07-9224-1158b764e060" d="M160,291.09c-42.07,7.65-70.88,10.69-90.14,7.42,0,0,63.12-25.17,101.86-58.19C171.7,240.32,167.36,269.47,160,291.09Z"/><path class="ada9e518-9210-4b07-9224-1158b764e060" d="M221.56,222.65s3.07,25,19,32.44l1.05-6S230.15,241.4,221.56,222.65Z"/><path class="a35bae40-94e8-4be6-adb0-0aac0cc979c5" d="M219.64,176.9s-15.18,41.23,21.94,72.24c0,0-17.08,102-50.69,193.42"/><line class="a35bae40-94e8-4be6-adb0-0aac0cc979c5" x1="152.6" y1="312.71" x2="164.42" y2="278.56"/><polygon class="bbf5fe50-23cf-4ec4-816c-64a7e6c4c835" points="159.98 291.09 141.18 294.34 164.07 279.58 159.98 291.09"/><polygon class="ada9e518-9210-4b07-9224-1158b764e060" points="125.95 200.52 113.14 228.48 150.11 187 125.95 200.52"/><path class="a35bae40-94e8-4be6-adb0-0aac0cc979c5" d="M130.48,191.33s-13.2,24-21.86,49.37"/><path class="a35bae40-94e8-4be6-adb0-0aac0cc979c5" d="M94.53,167.58s2.63,20.32,30.25,33.83"/><path class="ff3de4a8-2f40-4f48-a348-7a6ce8391bfe" d="M414.55,204a2,2,0,0,1,3.26.1c61.85,103.06,27.66,130.54-5.77,132.82-33.72,2.3-57.36-22.57-57.36-22.57-4.6,62.06-6.9,121.83-6.9,121.83a288.34,288.34,0,0,1-84.28,18.22l1.66-212.52C297,220,294.74,193,293.9,187.84L296.64,162C312,166.26,313,185.8,313,185.8s20.24,2.9,34,15.93,33.6,38.66,33.6,38.66a89,89,0,0,1-1.19-12.16,1.93,1.93,0,0,1,1.91-1.95C386.35,226.23,400.51,224.11,414.55,204Z"/><path class="ada9e518-9210-4b07-9224-1158b764e060" d="M354.68,314.36s23.64,24.87,57.36,22.57c10.53-.71,21.14-3.94,28.8-11.24,0,0,28-21.22-3.58-85.13,0,0,18.82,71.91-51,69.94-20.42-1-30.09-7.26-30.09-7.26Z"/><line class="a35bae40-94e8-4be6-adb0-0aac0cc979c5" x1="354.21" y1="320.76" x2="357.94" y2="290.35"/><path class="a35bae40-94e8-4be6-adb0-0aac0cc979c5" d="M294.44,307.55a3.08,3.08,0,1,1-3.08-3.08A3.07,3.07,0,0,1,294.44,307.55Z"/><path class="a35bae40-94e8-4be6-adb0-0aac0cc979c5" d="M297.52,333.09a3.08,3.08,0,1,1-3.08-3.08A3.08,3.08,0,0,1,297.52,333.09Z"/><path class="a35bae40-94e8-4be6-adb0-0aac0cc979c5" d="M300.59,357.86a3.08,3.08,0,1,1-3.07-3.08A3.06,3.06,0,0,1,300.59,357.86Z"/><polygon class="bbf5fe50-23cf-4ec4-816c-64a7e6c4c835" points="357.09 297.32 365.87 323.45 354.52 315.17 357.09 297.32"/><polygon class="ada9e518-9210-4b07-9224-1158b764e060" points="380.62 240.39 357.94 213.1 383.95 268.02 380.62 240.39"/><path class="a35bae40-94e8-4be6-adb0-0aac0cc979c5" d="M379.66,232.68s3.91,33.2,6,48.72"/><path class="a35bae40-94e8-4be6-adb0-0aac0cc979c5" d="M380.62,240.39s27.3,10.05,44.83-23"/><path class="ada9e518-9210-4b07-9224-1158b764e060" d="M315.69,186.31,313,185.8s-1.3,49.42-37.08,66l2.27,52.66L281,255S321.62,241.13,315.69,186.31Z"/><path class="a35bae40-94e8-4be6-adb0-0aac0cc979c5" d="M313,185.8s-2.6,52.13-37.08,66c0,0,5.26,124.22,8.53,187.69"/><path class="a35bae40-94e8-4be6-adb0-0aac0cc979c5" d="M398.43,126.28A17.88,17.88,0,0,1,408,115.13"/><path class="a35bae40-94e8-4be6-adb0-0aac0cc979c5" d="M408.49,133s2.57-2.08,7.6-2.21"/><path class="a35bae40-94e8-4be6-adb0-0aac0cc979c5" d="M387.27,125.59s-2.33-5.39-1.47-9"/><circle class="a35bae40-94e8-4be6-adb0-0aac0cc979c5" cx="395" cy="116.64" r="1.3"/><circle class="bbf5fe50-23cf-4ec4-816c-64a7e6c4c835" cx="391.25" cy="125.3" r="0.98"/><path class="bbf5fe50-23cf-4ec4-816c-64a7e6c4c835" d="M409.47,119.72a1,1,0,1,1-1-1A1,1,0,0,1,409.47,119.72Z"/><circle class="a35bae40-94e8-4be6-adb0-0aac0cc979c5" cx="407.46" cy="126.6" r="1.3"/><path class="a35bae40-94e8-4be6-adb0-0aac0cc979c5" d="M388.9,134.94s2.9-5.21,8.13-2.78"/><path class="a35bae40-94e8-4be6-adb0-0aac0cc979c5" d="M142.51,91.8a17.89,17.89,0,0,0-10.75-10"/><path class="a35bae40-94e8-4be6-adb0-0aac0cc979c5" d="M133.26,99.55s-2.79-1.78-7.8-1.35"/><path class="a35bae40-94e8-4be6-adb0-0aac0cc979c5" d="M153.52,89.87s1.72-5.62.47-9.06"/><path class="a35bae40-94e8-4be6-adb0-0aac0cc979c5" d="M143.55,82a1.3,1.3,0,1,0,1.15-1.43A1.3,1.3,0,0,0,143.55,82Z"/><path class="bbf5fe50-23cf-4ec4-816c-64a7e6c4c835" d="M148.56,90.14a1,1,0,0,0,1.09.86,1,1,0,0,0,.86-1.08,1,1,0,1,0-1.95.22Z"/><path class="bbf5fe50-23cf-4ec4-816c-64a7e6c4c835" d="M130.81,86.51a1,1,0,1,0,.87-1.08A1,1,0,0,0,130.81,86.51Z"/><path class="a35bae40-94e8-4be6-adb0-0aac0cc979c5" d="M132.28,93.27a1.3,1.3,0,1,0,1.15-1.44A1.31,1.31,0,0,0,132.28,93.27Z"/><path class="a35bae40-94e8-4be6-adb0-0aac0cc979c5" d="M153,99.35s-3.46-4.86-8.4-1.86"/></g></g></svg>